#Comment line ignore any data following # character 
#Hierarchical Translation and Rotation (.htr) file 
[Header]	
#Header keywords are followed by a single value 
FileType HTR		#Single word string
DataType HTRS		#Translation followed by rotation and scale data
FileVersion 1		#integer
NumSegments 64		#integer
NumFrames 3		#integer
DataFrameRate 30		#integer, data frame rate in this file
EulerRotationOrder ZYX
CalibrationUnits mm
RotationUnits Degrees
GlobalAxisofGravity Y
BoneLengthAxis Y
ScaleFactor 1.00
[SegmentNames&Hierarchy]
#CHILD	PARENT
Pinger_Root GLOBAL
Pelvis Pinger_Root
L_Hip Pelvis
R_Hip Pelvis
Rear_Leg01 Pelvis
Spine1 Pelvis
L_Leg01 L_Hip
L_Leg02 L_Leg01
L_Leg03 L_Leg02
L_Foot L_Leg03
L_Toe1_01 L_Foot
L_Toe2_01 L_Foot
L_Toe3_01 L_Foot
planeAlignerLeft L_Foot
L_Toe1_02 L_Toe1_01
L_Toe1_03 L_Toe1_02
L_Toe2_02 L_Toe2_01
L_Toe2_03 L_Toe2_02
L_Toe3_02 L_Toe3_01
L_Toe3_03 L_Toe3_02
planeLockWeightLeft planeAlignerLeft
R_Leg01 R_Hip
R_Leg02 R_Leg01
R_Leg03 R_Leg02
R_Foot R_Leg03
planeAlignerRight R_Foot
R_Toe1_01 R_Foot
R_Toe2_01 R_Foot
R_Toe3_01 R_Foot
planeLockWeightRight planeAlignerRight
R_Toe1_02 R_Toe1_01
R_Toe1_03 R_Toe1_02
R_Toe2_02 R_Toe2_01
R_Toe2_03 R_Toe2_02
R_Toe3_02 R_Toe3_01
R_Toe3_03 R_Toe3_02
Rear_Leg02 Rear_Leg01
Rear_Leg03 Rear_Leg02
Rear_Leg04 Rear_Leg03
Rear_Foot Rear_Leg04
planeAlignerCenter Rear_Foot
Rear_Toe1_01 Rear_Foot
Rear_Toe2_01 Rear_Foot
Rear_Toe3_01 Rear_Foot
planeLockWeightCenter planeAlignerCenter
Rear_Toe1_02 Rear_Toe1_01
Rear_Toe1_03 Rear_Toe1_02
Rear_Toe2_02 Rear_Toe2_01
Rear_Toe2_03 Rear_Toe2_02
Rear_Toe3_02 Rear_Toe3_01
Rear_Toe3_03 Rear_Toe3_02
Back_Bone Spine1
Head Spine1
Motor_Bone Back_Bone
Ping_Mechanism Back_Bone
BN_LookIK Head
bottomMouth Head
L_Mouth01 Head
L_mouthFront Head
mouthGun Head
R_Mouth01 Head
R_mouthFront Head
TopMouth Head
weapon_bone Head
[BasePosition]
#SegmentName Tx, Ty, Tz, Rx, Ry, Rz, BoneLength
Pinger_Root 0.000000 0.000000 0.000000 -90.000000 0.000000 0.000000 10.000000 
Pelvis 0.000000 0.000000 0.000000 0.000000 0.000000 0.000000 10.000000 
L_Hip 0.000000 0.000000 0.000000 0.000000 0.000000 0.000000 10.000000 
R_Hip 0.000000 0.000000 0.000000 0.000000 0.000000 0.000000 10.000000 
Rear_Leg01 0.000000 0.000000 0.000000 0.000000 0.000000 0.000000 10.000000 
Spine1 0.000000 0.000000 0.000000 0.000000 0.000000 0.000000 10.000000 
L_Leg01 0.000000 0.000000 0.000000 0.000000 0.000000 0.000000 10.000000 
L_Leg02 0.000000 0.000000 0.000000 0.000000 0.000000 0.000000 10.000000 
L_Leg03 0.000000 0.000000 0.000000 0.000000 0.000000 0.000000 10.000000 
L_Foot 0.000000 0.000000 0.000000 0.000000 0.000000 0.000000 10.000000 
L_Toe1_01 0.000000 0.000000 0.000000 0.000000 0.000000 0.000000 10.000000 
L_Toe2_01 0.000000 0.000000 0.000000 0.000000 0.000000 0.000000 10.000000 
L_Toe3_01 0.000000 0.000000 0.000000 0.000000 0.000000 0.000000 10.000000 
planeAlignerLeft 0.000000 0.000000 0.000000 0.000000 0.000000 0.000000 10.000000 
L_Toe1_02 0.000000 0.000000 0.000000 0.000000 0.000000 0.000000 10.000000 
L_Toe1_03 0.000000 0.000000 0.000000 0.000000 0.000000 0.000000 10.000000 
L_Toe2_02 0.000000 0.000000 0.000000 0.000000 0.000000 0.000000 10.000000 
L_Toe2_03 0.000000 0.000000 0.000000 0.000000 0.000000 0.000000 10.000000 
L_Toe3_02 0.000000 0.000000 0.000000 0.000000 0.000000 0.000000 10.000000 
L_Toe3_03 0.000000 0.000000 0.000000 0.000000 0.000000 0.000000 10.000000 
planeLockWeightLeft 0.000000 0.000000 0.000000 0.000000 0.000000 0.000000 10.000000 
R_Leg01 0.000000 0.000000 0.000000 0.000000 0.000000 0.000000 10.000000 
R_Leg02 0.000000 0.000000 0.000000 0.000000 0.000000 0.000000 10.000000 
R_Leg03 0.000000 0.000000 0.000000 0.000000 0.000000 0.000000 10.000000 
R_Foot 0.000000 0.000000 0.000000 0.000000 0.000000 0.000000 10.000000 
planeAlignerRight 0.000000 0.000000 0.000000 0.000000 0.000000 0.000000 10.000000 
R_Toe1_01 0.000000 0.000000 0.000000 0.000000 0.000000 0.000000 10.000000 
R_Toe2_01 0.000000 0.000000 0.000000 0.000000 0.000000 0.000000 10.000000 
R_Toe3_01 0.000000 0.000000 0.000000 0.000000 0.000000 0.000000 10.000000 
planeLockWeightRight 0.000000 0.000000 0.000000 0.000000 0.000000 0.000000 10.000000 
R_Toe1_02 0.000000 0.000000 0.000000 0.000000 0.000000 0.000000 10.000000 
R_Toe1_03 0.000000 0.000000 0.000000 0.000000 0.000000 0.000000 10.000000 
R_Toe2_02 0.000000 0.000000 0.000000 0.000000 0.000000 0.000000 10.000000 
R_Toe2_03 0.000000 0.000000 0.000000 0.000000 0.000000 0.000000 10.000000 
R_Toe3_02 0.000000 0.000000 0.000000 0.000000 0.000000 0.000000 10.000000 
R_Toe3_03 0.000000 0.000000 0.000000 0.000000 0.000000 0.000000 10.000000 
Rear_Leg02 0.000000 0.000000 0.000000 0.000000 0.000000 0.000000 10.000000 
Rear_Leg03 0.000000 0.000000 0.000000 0.000000 0.000000 0.000000 10.000000 
Rear_Leg04 0.000000 0.000000 0.000000 0.000000 0.000000 0.000000 10.000000 
Rear_Foot 0.000000 0.000000 0.000000 0.000000 0.000000 0.000000 10.000000 
planeAlignerCenter 0.000000 0.000000 0.000000 0.000000 0.000000 0.000000 10.000000 
Rear_Toe1_01 0.000000 0.000000 0.000000 0.000000 0.000000 0.000000 10.000000 
Rear_Toe2_01 0.000000 0.000000 0.000000 0.000000 0.000000 0.000000 10.000000 
Rear_Toe3_01 0.000000 0.000000 0.000000 0.000000 0.000000 0.000000 10.000000 
planeLockWeightCenter 0.000000 0.000000 0.000000 0.000000 0.000000 0.000000 10.000000 
Rear_Toe1_02 0.000000 0.000000 0.000000 0.000000 0.000000 0.000000 10.000000 
Rear_Toe1_03 0.000000 0.000000 0.000000 0.000000 0.000000 0.000000 10.000000 
Rear_Toe2_02 0.000000 0.000000 0.000000 0.000000 0.000000 0.000000 10.000000 
Rear_Toe2_03 0.000000 0.000000 0.000000 0.000000 0.000000 0.000000 10.000000 
Rear_Toe3_02 0.000000 0.000000 0.000000 0.000000 0.000000 0.000000 10.000000 
Rear_Toe3_03 0.000000 0.000000 0.000000 0.000000 0.000000 0.000000 10.000000 
Back_Bone 0.000000 0.000000 0.000000 0.000000 0.000000 0.000000 10.000000 
Head 0.000000 0.000000 0.000000 0.000000 0.000000 0.000000 10.000000 
Motor_Bone 0.000000 0.000000 0.000000 0.000000 0.000000 0.000000 10.000000 
Ping_Mechanism 0.000000 0.000000 0.000000 0.000000 0.000000 0.000000 10.000000 
BN_LookIK 0.000000 0.000000 0.000000 0.000000 0.000000 0.000000 10.000000 
bottomMouth 0.000000 0.000000 0.000000 0.000000 0.000000 0.000000 10.000000 
L_Mouth01 0.000000 0.000000 0.000000 0.000000 0.000000 0.000000 10.000000 
L_mouthFront 0.000000 0.000000 0.000000 0.000000 0.000000 0.000000 10.000000 
mouthGun 0.000000 0.000000 0.000000 0.000000 0.000000 0.000000 10.000000 
R_Mouth01 0.000000 0.000000 0.000000 0.000000 0.000000 0.000000 10.000000 
R_mouthFront 0.000000 0.000000 0.000000 0.000000 0.000000 0.000000 10.000000 
TopMouth 0.000000 0.000000 0.000000 0.000000 0.000000 0.000000 10.000000 
weapon_bone 0.000000 0.000000 0.000000 0.000000 0.000000 0.000000 10.000000 
#Beginning of Data. Separated by tabs
#Fr	Tx	Ty	Tz	Rx	Ry	Rz	SF
[Pinger_Root]
15 0.000000 0.000000 0.000000 -0.000076 -0.000006 -9.142819 0.000000
16 0.000000 0.000000 0.000000 -0.000076 -0.000008 -11.456610 0.000000
17 0.000000 0.000000 0.000000 -0.000076 -0.000009 -13.778036 0.000000
[Pelvis]
15 -440.536041 1136.447266 4384.158203 151.775909 -77.175636 -176.181107 4550.431641
16 -551.098511 1096.941162 4369.841309 152.110260 -75.061073 -177.094757 4538.997559
17 -632.186951 1034.292114 4366.450684 150.912857 -73.839699 -176.426636 4531.590820
[L_Hip]
15 5.766392 125.831482 872.656799 141.932724 -69.005791 143.813950 881.701050
16 5.766392 125.831482 872.656799 139.820206 -70.693497 146.101624 881.701050
17 5.766392 125.831482 872.656799 137.294693 -72.348038 148.801376 881.701050
[R_Hip]
15 5.765438 125.836372 -872.654907 61.474270 76.371269 153.800095 881.699829
16 5.765438 125.836372 -872.654907 67.269485 73.725456 159.799942 881.699829
17 5.765438 125.836372 -872.654907 66.011208 71.926208 158.541199 881.699829
[Rear_Leg01]
15 -192.298416 -925.602966 -0.001907 145.922577 12.898676 -155.645950 945.367432
16 -192.298416 -925.602966 -0.001907 143.982849 13.596677 -156.975372 945.367432
17 -192.298416 -925.602966 -0.001907 142.438461 14.683331 -158.505112 945.367432
[Spine1]
15 290.604584 5.007505 0.000477 4.782312 17.810913 31.595184 290.647736
16 290.604584 5.007505 0.000477 4.324294 20.123583 32.889908 290.647736
17 290.604584 5.007505 0.000477 3.848118 21.254957 34.059036 290.647736
[L_Leg01]
15 761.932007 -0.002384 -0.069261 26.245932 0.571023 -27.311264 761.932068
16 761.932007 -0.002384 -0.069261 25.939211 1.407442 -24.754036 761.932068
17 761.932007 -0.002384 -0.069261 26.709999 1.385306 -22.865868 761.932068
[L_Leg02]
15 1441.140503 -0.000954 -0.000715 5.246964 0.995250 -126.703316 1441.140503
16 1441.140503 -0.000954 -0.000715 5.882831 1.366605 -131.763504 1441.140503
17 1441.140503 -0.000954 -0.000715 6.088717 1.428779 -135.303909 1441.140503
[L_Leg03]
15 1686.963989 -0.000715 -0.000954 -0.089820 0.051462 134.085388 1686.963989
16 1686.963989 -0.000715 -0.000954 -0.095583 0.055347 135.590515 1686.963989
17 1686.963989 -0.000715 -0.000954 -0.095568 0.055374 135.622543 1686.963989
[L_Foot]
15 3041.570068 -30.715107 11.297464 0.960842 11.319050 57.235752 3041.746094
16 3041.570068 -30.715107 11.297464 0.902747 11.269482 58.532299 3041.746094
17 3041.570068 -30.715107 11.297464 0.476981 12.643140 59.902790 3041.746094
[L_Toe1_01]
15 -188.216690 -224.732346 -21.137953 94.168381 -6.854755 -175.773911 293.899567
16 -188.216690 -224.732346 -21.137953 94.151520 -6.855383 -174.864075 293.899567
17 -188.216690 -224.732346 -21.137953 94.134644 -6.855742 -173.954285 293.899567
[L_Toe2_01]
15 200.746536 -219.926590 148.838394 -92.998474 -28.115080 -42.226238 332.896027
16 200.746536 -219.926590 148.838394 -92.795525 -27.950264 -42.189686 332.896027
17 200.746536 -219.926590 148.838394 -92.390350 -27.707623 -43.280876 332.896027
[L_Toe3_01]
15 188.832520 -219.859131 -191.078659 -98.337410 16.018265 -56.235687 347.140900
16 188.832520 -219.859131 -191.078659 -98.450188 15.825624 -56.231380 347.140900
17 188.832520 -219.859131 -191.078659 -98.665977 15.514312 -57.452251 347.140900
[planeAlignerLeft]
15 52.147232 -489.160217 101.105347 169.296204 -76.298828 92.080452 502.214417
16 57.837524 -497.880280 101.101685 169.302475 -76.299751 92.824326 511.323303
17 58.728619 -512.305847 101.101379 169.278915 -76.301918 92.871002 525.478638
[L_Toe1_02]
15 413.761139 0.000477 0.000000 0.001384 -25.941881 0.001384 413.761139
16 413.761139 0.000477 0.000000 0.001384 -25.936811 0.001384 413.761139
17 413.761139 0.000477 0.000000 0.001384 -25.931732 0.001384 413.761139
[L_Toe1_03]
15 464.317322 0.000358 -0.000089 0.004281 58.177040 0.004281 464.317322
16 464.317322 0.000358 -0.000089 0.004331 58.556580 0.004331 464.317322
17 464.317322 0.000358 -0.000089 0.004295 58.284588 0.004295 464.317322
[L_Toe2_02]
15 342.235809 -0.000477 0.000238 0.001183 -75.241692 0.001183 342.235809
16 342.235809 -0.000477 0.000238 0.001184 -74.967186 0.001184 342.235809
17 342.235809 -0.000477 0.000238 0.001184 -74.692726 0.001184 342.235809
[L_Toe2_03]
15 420.210846 -0.000715 0.000000 -179.985245 86.009583 -179.981750 420.210846
16 420.210846 -0.000715 0.000000 -179.979248 87.073769 -179.975754 420.210846
17 420.210846 -0.000715 0.000000 -179.966370 88.137962 -179.962875 420.210846
[L_Toe3_02]
15 329.270111 0.000954 0.000000 0.001176 -82.873184 0.001176 329.270111
16 329.270111 0.000954 0.000000 0.001176 -82.701759 0.001176 329.270111
17 329.270111 0.000954 0.000000 0.001176 -82.530342 0.001176 329.270111
[L_Toe3_03]
15 439.137451 -0.001907 0.000954 179.990692 66.425354 179.997833 439.137451
16 439.137451 -0.001907 0.000954 179.990433 67.474854 179.997559 439.137451
17 439.137451 -0.001907 0.000954 -179.998611 69.094231 -179.995056 439.137451
[planeLockWeightLeft]
15 999.999146 0.098267 0.076153 -0.011826 -0.004376 0.005620 999.999146
16 999.999146 0.098267 0.076152 -0.011826 -0.004376 0.005620 999.999146
17 999.999146 0.098267 0.076152 -0.011826 -0.004376 0.005620 999.999146
[R_Leg01]
15 761.455627 -0.001907 -0.000358 122.049133 -47.613419 57.808331 761.455688
16 761.455627 -0.001907 -0.000358 132.108322 -41.855759 49.856689 761.455688
17 761.455627 -0.001907 -0.000358 138.598618 -31.197060 43.211823 761.455688
[R_Leg02]
15 1441.140625 0.000000 -0.000238 8.906019 -1.663085 -135.061966 1441.140625
16 1441.140625 0.000000 -0.000238 11.122910 -2.182332 -136.060043 1441.140625
17 1441.140625 0.000000 -0.000238 10.272146 -1.994741 -135.158783 1441.140625
[R_Leg03]
15 1686.963989 0.000954 0.001431 0.011856 -0.006039 113.509560 1686.963989
16 1686.963989 0.000954 0.001431 0.009156 -0.001847 112.804428 1686.963989
17 1686.963989 0.000954 0.001431 0.009154 -0.001859 112.958733 1686.963989
[R_Foot]
15 3041.560059 -30.531288 -11.204481 27.945669 -27.865660 56.737396 3041.734131
16 3041.560059 -30.531288 -11.204481 29.132038 -32.919594 60.841133 3041.734131
17 3041.560059 -30.531288 -11.204481 23.804764 -39.357292 70.232666 3041.734131
[planeAlignerRight]
15 2.222989 -716.590210 -187.517929 -95.295425 -74.787338 4.449666 740.722229
16 -73.434967 -679.481262 -137.596313 -102.385391 -67.897270 6.841581 697.151550
17 -182.124756 -635.135803 -90.993317 -103.965408 -60.168484 -0.391641 666.968323
[R_Toe1_01]
15 -188.383347 -224.864899 21.052242 88.484039 -14.076764 -142.763260 294.101532
16 -188.383347 -224.864899 21.052242 89.287819 -23.770428 -151.362656 294.101532
17 -188.383347 -224.864899 21.052242 89.466377 -33.289406 -163.644638 294.101532
[R_Toe2_01]
15 200.637817 -220.002121 -148.787384 -117.683220 20.505552 -85.307953 332.857574
16 200.637817 -220.002121 -148.787384 -125.370621 19.096539 -93.305534 332.857574
17 200.637817 -220.002121 -148.787384 -134.248993 16.566654 -108.099617 332.857574
[R_Toe3_01]
15 188.606735 -220.092957 191.126343 -97.234383 8.988485 -73.511002 347.192566
16 188.606735 -220.092957 191.126343 -105.248932 8.628419 -76.183441 347.192566
17 188.606735 -220.092957 191.126343 -112.170708 9.686037 -86.464355 347.192566
[planeLockWeightRight]
15 -0.000305 -0.000610 0.076370 -0.011823 -0.004379 -0.000027 0.076373
16 -0.000331 -0.000559 0.076396 -0.011823 -0.004379 -0.000027 0.076398
17 -0.000356 -0.000509 0.076421 -0.011823 -0.004379 -0.000027 0.076424
[R_Toe1_02]
15 413.762085 0.000477 -0.000119 0.001464 -16.549669 0.001464 413.762085
16 413.762085 0.000477 -0.000119 0.001473 -15.685528 0.001473 413.762085
17 413.762085 0.000477 -0.000119 0.001472 -15.710501 0.001472 413.762085
[R_Toe1_03]
15 464.317810 0.000000 0.001088 -179.996109 78.324760 -179.992584 464.317810
16 464.317810 0.000000 0.001088 -179.997131 75.739471 -179.993607 464.317810
17 464.317810 0.000000 0.001088 -179.997116 75.820938 -179.993591 464.317810
[R_Toe2_02]
15 342.234741 -0.000954 0.000238 -0.002343 -75.128807 -0.002343 342.234741
16 342.234741 -0.000954 0.000238 -0.002340 -76.312759 -0.002340 342.234741
17 342.234741 -0.000954 0.000238 -0.002341 -75.741508 -0.002341 342.234741
[R_Toe2_03]
15 420.210846 0.000715 -0.000268 -179.979660 86.456741 -179.983170 420.210846
16 420.210846 0.000715 -0.000268 -179.989700 82.291588 -179.993210 420.210846
17 420.210846 0.000715 -0.000268 -179.986481 84.403671 -179.989975 420.210846
[R_Toe3_02]
15 329.270355 -0.000477 -0.000954 0.001178 -80.024666 0.001178 329.270355
16 329.270355 -0.000477 -0.000954 0.001177 -81.383904 0.001177 329.270355
17 329.270355 -0.000477 -0.000954 0.001177 -81.410027 0.001177 329.270355
[R_Toe3_03]
15 439.137939 0.000238 0.001431 -179.995239 79.874687 -179.991730 439.137939
16 439.137939 0.000238 0.001431 -179.997452 74.703117 -179.993912 439.137939
17 439.137939 0.000238 0.001431 -179.997482 74.591171 -179.993958 439.137939
[Rear_Leg02]
15 1162.777710 -0.029802 0.005960 -0.182136 -2.985006 -107.460381 1162.777710
16 1162.777710 -0.029802 0.005960 -0.176597 -2.984600 -107.540260 1162.777710
17 1162.777710 -0.029802 0.005960 -0.171060 -2.984186 -107.620140 1162.777710
[Rear_Leg03]
15 607.192505 -0.013351 -0.073195 0.006581 -0.001752 58.029945 607.192505
16 607.192505 -0.013351 -0.073195 0.006580 -0.001757 58.107281 607.192505
17 607.192505 -0.013351 -0.073195 0.006579 -0.001761 58.184628 607.192505
[Rear_Leg04]
15 995.874512 -0.020504 -0.011921 -0.036841 -0.014585 46.802341 995.874573
16 995.874512 -0.020504 -0.011921 -0.036814 -0.014653 46.592171 995.874573
17 995.874512 -0.020504 -0.011921 -0.036843 -0.014580 46.818523 995.874573
[Rear_Foot]
15 3096.176270 -0.067472 -0.041425 -79.062538 87.567558 120.246933 3096.176270
16 3096.176270 -0.067472 -0.041425 -82.068306 87.592384 117.329918 3096.176270
17 3096.176270 -0.067472 -0.041425 -67.916428 87.419724 131.198288 3096.176270
[planeAlignerCenter]
15 75.008362 -15.664367 -654.375122 12.570736 6.534632 -177.586685 658.846313
16 104.799049 -15.516051 -657.336914 12.838453 8.866694 -176.326370 665.819336
17 121.332199 -15.115050 -658.178345 13.140501 10.202412 -174.919388 669.439087
[Rear_Toe1_01]
15 0.653352 83.966492 -371.173737 -8.789580 33.131718 86.185486 380.553192
16 0.653352 83.966492 -371.173737 -12.101990 33.631504 84.954880 380.553192
17 0.653352 83.966492 -371.173737 -14.011678 33.974949 84.918907 380.553192
[Rear_Toe2_01]
15 178.200760 -294.826019 -362.060547 -1.641314 23.650940 -58.656532 499.765686
16 178.200760 -294.826019 -362.060547 0.440375 22.127693 -55.550377 499.765686
17 178.200760 -294.826019 -362.060547 1.493763 21.032921 -53.025036 499.765686
[Rear_Toe3_01]
15 -153.359680 -308.780914 -362.060852 11.069413 30.209286 -103.517052 499.952881
16 -153.359680 -308.780914 -362.060852 14.234238 31.266096 -99.544189 499.952881
17 -153.359680 -308.780914 -362.060852 16.068218 31.557806 -96.323555 499.952881
[planeLockWeightCenter]
15 1000.000122 0.000000 0.076362 -0.011814 -0.004373 -0.000015 1000.000122
16 1000.000122 0.000000 0.076368 -0.011814 -0.004373 -0.000015 1000.000122
17 1000.000122 0.000000 0.076374 -0.011814 -0.004373 -0.000015 1000.000122
[Rear_Toe1_02]
15 379.707825 0.194073 0.000477 0.001332 -33.567429 0.001332 379.707855
16 379.707825 0.194073 0.000477 0.001332 -33.566921 0.001332 379.707855
17 379.707825 0.194073 0.000477 0.001332 -33.566399 0.001332 379.707855
[Rear_Toe1_03]
15 500.129700 0.165701 0.000119 0.000738 68.790100 0.002516 500.129761
16 500.129700 0.165701 0.000119 -0.004795 68.010925 -0.001233 500.129761
17 500.129700 0.165701 0.000119 -0.004751 67.677170 -0.001187 500.129761
[Rear_Toe2_02]
15 340.494507 0.000238 -0.000954 0.001192 -69.920898 0.001192 340.494507
16 340.494507 0.000238 -0.000954 0.001194 -68.764305 0.001194 340.494507
17 340.494507 0.000238 -0.000954 0.001196 -67.607704 0.001196 340.494507
[Rear_Toe2_03]
15 433.103577 0.000000 0.000238 0.006713 69.861130 0.006713 433.103546
16 433.103577 0.000000 0.000238 0.006126 67.909523 0.006126 433.103546
17 433.103577 0.000000 0.000238 0.005751 66.449013 0.005751 433.103546
[Rear_Toe3_02]
15 340.494141 -0.000358 -0.000477 0.001190 -71.108002 0.001190 340.494171
16 340.494141 -0.000358 -0.000477 0.001190 -70.995651 0.001190 340.494171
17 340.494141 -0.000358 -0.000477 0.001190 -70.883255 0.001190 340.494171
[Rear_Toe3_03]
15 433.103577 0.001431 -0.000238 0.007408 71.769989 0.007408 433.103546
16 433.103577 0.001431 -0.000238 0.007423 71.806610 0.007423 433.103546
17 433.103577 0.001431 -0.000238 0.007194 71.222641 0.007194 433.103546
[Back_Bone]
15 1312.175781 -701.934692 0.000954 0.000023 -0.000007 -85.606667 1488.125488
16 1312.175781 -701.934692 0.000954 0.000023 -0.000007 -85.606667 1488.125488
17 1312.175781 -701.934692 0.000954 0.000023 -0.000007 -85.606667 1488.125488
[Head]
15 1406.159424 809.709290 0.001431 0.000008 0.000003 7.767519 1622.625488
16 1406.159424 809.709290 0.001431 0.000008 0.000003 7.767519 1622.625488
17 1406.159424 809.709290 0.001431 0.000008 0.000003 7.767519 1622.625488
[Motor_Bone]
15 1158.364380 -417.834747 0.000477 -0.049367 12.054718 -105.195412 1231.419434
16 1158.364380 -417.834747 0.000477 -0.050321 11.558445 -105.228271 1231.419434
17 1158.364380 -417.834747 0.000477 -0.059733 10.059067 -105.317993 1231.419434
[Ping_Mechanism]
15 1193.615845 -407.131317 -58.507252 0.000103 -0.000053 82.120995 1262.496582
16 1188.933105 -400.713501 -66.097572 0.000103 -0.000053 82.120995 1256.384521
17 1184.449097 -396.029663 -68.988640 0.000103 -0.000053 82.120995 1250.807129
[BN_LookIK]
15 193.241119 1380.371704 -0.002861 0.000000 89.965736 -31.038179 1393.832153
16 193.241119 1380.371704 -0.002861 0.000000 89.965736 -31.038179 1393.832153
17 193.241119 1380.371704 -0.002861 0.000000 89.965736 -31.038179 1393.832153
[bottomMouth]
15 -435.092926 615.759399 -0.000954 -0.000022 0.000016 73.527184 753.966492
16 -435.092926 615.759399 -0.000954 -0.000022 0.000016 73.527184 753.966492
17 -435.092926 615.759399 -0.000954 -0.000022 0.000016 73.527184 753.966492
[L_Mouth01]
15 554.440979 7.658243 838.222046 150.204178 23.759130 109.605339 1005.027161
16 554.440979 7.658243 838.222046 150.204178 23.759130 109.605339 1005.027161
17 554.440979 7.658243 838.222046 150.204178 23.759130 109.605339 1005.027161
[L_mouthFront]
15 551.629089 934.514771 339.150421 0.000081 2.804060 79.119301 1136.941284
16 551.629089 934.514771 339.150421 0.000081 2.804060 79.119301 1136.941284
17 551.629089 934.514771 339.150421 0.000081 2.804060 79.119301 1136.941284
[mouthGun]
15 55.332661 1627.420898 0.000000 0.000023 0.000009 -11.038128 1628.361328
16 55.332661 1627.420898 0.000000 0.000023 0.000009 -11.038128 1628.361328
17 55.332661 1627.420898 0.000000 0.000023 0.000009 -11.038128 1628.361328
[R_Mouth01]
15 554.442383 7.659197 -838.223938 29.795891 -23.759109 109.605331 1005.029541
16 554.442383 7.659197 -838.223938 29.795891 -23.759109 109.605331 1005.029541
17 554.442383 7.659197 -838.223938 29.795891 -23.759109 109.605331 1005.029541
[R_mouthFront]
15 551.629089 934.514282 -339.151367 0.000029 -2.803930 79.119133 1136.941162
16 551.629089 934.514282 -339.151367 0.000029 -2.803930 79.119133 1136.941162
17 551.629089 934.514282 -339.151367 0.000029 -2.803930 79.119133 1136.941162
[TopMouth]
15 461.269867 -56.106091 -0.008583 -0.000059 -0.000268 92.025169 464.669525
16 461.269867 -56.106091 -0.008583 -0.000059 -0.000268 92.025169 464.669525
17 461.269867 -56.106091 -0.008583 -0.000059 -0.000268 92.025169 464.669525
[weapon_bone]
15 -987.239868 1448.372803 0.001431 0.000000 89.965736 -31.038221 1752.833740
16 -987.239868 1448.372803 0.001431 0.000000 89.965736 -31.038221 1752.833740
17 -987.239868 1448.372803 0.001431 0.000000 89.965736 -31.038221 1752.833740
